<?xml version="1.0" encoding="UTF-8"?>
<svg id="Layer_2" data-name="Layer 2" xmlns="http://www.w3.org/2000/svg" viewBox="0 0 463.18 99.63">
  <defs>
    <style>
      .cls-1 {
        fill: #eb1f1f;
      }
    </style>
  </defs>
  <g id="Layer_1-2" data-name="Layer 1">
    <g>
      <path class="cls-1" d="m46.99,79.13c-10.86-.03-21.05-5.41-28.31-14.66,5.51,11.67,17.4,19.77,31.14,19.77,12.74,0,23.88-6.96,29.83-17.28l-5.3-3.36c-5.9,9.74-16.02,15.52-27.26,15.52h-.1Zm25.31-33.59h11.66c-.74-5.9-2.97-11.34-6.31-15.93l-11.93,7.66c3.63,5.69,4.1,12,1.34,18.3-3.26,7.46-10.96,14-19.58,17.11,3.9-.5,7.66-1.68,11.08-3.58,8.43-4.69,13.29-12.75,13.71-22.7l.04-.86Zm11.94,4.28c0-.84-.04-1.66-.1-2.48h-10.13c-.68,10.06-5.96,18.53-14.58,23.33-4.92,2.74-10.52,4.1-16.23,4.1-4.43,0-8.93-.82-13.24-2.45,5.18,3.23,11.01,5,17.04,5.02h.09c10.9,0,20.67-5.76,26.18-15.43l.47-.82,6.78,4.3c2.38-4.68,3.73-9.97,3.73-15.57m1.8,0c0,20-16.22,36.22-36.22,36.22S13.59,69.82,13.59,49.81,29.81,13.59,49.81,13.59s36.22,16.22,36.22,36.22m13.59,0C99.63,22.3,77.32,0,49.81,0S0,22.3,0,49.81s22.3,49.81,49.81,49.81,49.81-22.3,49.81-49.81"/>
      <g>
        <path d="m447.64,68.04v-8.49h-19.14v-8.55h17.1v-7.97h-17.1v-7.79h18.09v-8.38h-27.68v41.18h28.73Zm-51.85-26c-.45.66-1.02,1.16-1.72,1.51-.7.35-1.48.59-2.34.73-.86.14-1.7.2-2.51.2h-4.73v-9.6h5.32c.74,0,1.51.06,2.31.18.8.12,1.52.34,2.16.67.64.33,1.17.8,1.58,1.4.41.6.61,1.39.61,2.36,0,1.05-.23,1.9-.67,2.56m12.71,26l-10.76-17.62c2.68-.81,4.77-2.17,6.28-4.07,1.51-1.9,2.27-4.25,2.27-7.04,0-2.36-.45-4.34-1.34-5.93-.89-1.59-2.08-2.87-3.58-3.84-1.49-.97-3.18-1.66-5.06-2.06-1.88-.41-3.81-.61-5.79-.61h-15.7v41.18h9.71v-16.34h3.39l8.94,16.34h11.63Zm-56.12-15.62c-.58,1.57-1.4,2.92-2.44,4.04-1.05,1.12-2.29,2.01-3.72,2.65-1.43.64-3.02.96-4.77.96s-3.34-.32-4.77-.96c-1.43-.64-2.67-1.52-3.69-2.65-1.03-1.12-1.83-2.47-2.41-4.04-.58-1.57-.87-3.29-.87-5.15s.28-3.45.84-5,1.37-2.88,2.41-3.98c1.05-1.11,2.29-1.98,3.72-2.62,1.43-.64,3.03-.96,4.77-.96s3.34.32,4.8.96c1.45.64,2.69,1.51,3.72,2.62,1.03,1.1,1.83,2.43,2.41,3.98s.87,3.22.87,5-.29,3.58-.87,5.15m9.83-14.07c-1.12-2.66-2.68-4.91-4.68-6.78s-4.37-3.29-7.12-4.3c-2.75-1.01-5.74-1.51-8.96-1.51s-6.19.5-8.93,1.51c-2.73,1.01-5.1,2.44-7.1,4.3-2,1.86-3.56,4.12-4.68,6.78-1.12,2.66-1.69,5.63-1.69,8.93s.56,6.23,1.69,8.93c1.12,2.7,2.68,5,4.68,6.92,2,1.92,4.36,3.4,7.1,4.45,2.73,1.05,5.71,1.57,8.93,1.57s6.2-.52,8.96-1.57c2.75-1.05,5.13-2.53,7.12-4.45,2-1.92,3.56-4.22,4.68-6.92,1.12-2.69,1.69-5.67,1.69-8.93s-.56-6.27-1.69-8.93m-49.15,23.99l-6.92-6.51c-.89,1.24-2.07,2.25-3.55,3.02-1.47.78-3.2,1.16-5.18,1.16-1.71,0-3.28-.31-4.71-.93-1.43-.62-2.67-1.48-3.69-2.59-1.03-1.11-1.83-2.43-2.41-3.98-.58-1.55-.87-3.26-.87-5.12s.29-3.5.87-5.03c.58-1.53,1.39-2.86,2.44-3.98,1.05-1.12,2.3-2.01,3.75-2.65,1.45-.64,3.05-.96,4.8-.96,1.59,0,3.14.31,4.65.93,1.51.62,2.73,1.57,3.66,2.85l6.75-6.75c-1.74-1.98-4.02-3.48-6.83-4.51-2.81-1.03-5.67-1.54-8.58-1.54-3.14,0-6.07.5-8.78,1.51-2.71,1.01-5.08,2.45-7.1,4.33-2.02,1.88-3.6,4.16-4.74,6.83-1.14,2.67-1.72,5.66-1.72,8.96s.56,6.17,1.69,8.84c1.12,2.68,2.67,4.97,4.65,6.89,1.98,1.92,4.31,3.4,7.01,4.45,2.69,1.05,5.63,1.57,8.81,1.57,3.49,0,6.57-.61,9.25-1.83,2.68-1.22,4.92-2.88,6.75-4.97m-47.46,5.7v-8.49h-19.13v-8.55h17.1v-7.97h-17.1v-7.79h18.09v-8.38h-27.68v41.18h28.73Zm-39.67-32.69v-8.49h-33.21v8.49h11.63v32.69h9.95v-32.69h11.63Zm-44.14-8.49h-10v41.18h10V26.86Zm-22.1,4.01c-1.82-1.67-3.95-2.93-6.37-3.78-2.42-.85-4.8-1.28-7.12-1.28-1.94,0-3.86.24-5.76.73-1.9.49-3.61,1.25-5.12,2.3-1.51,1.05-2.73,2.39-3.67,4.01-.93,1.63-1.39,3.59-1.39,5.87,0,1.86.3,3.44.9,4.74.6,1.3,1.4,2.4,2.38,3.31.99.91,2.11,1.66,3.37,2.24,1.26.58,2.55,1.09,3.87,1.51,1.36.43,2.57.83,3.63,1.19,1.07.37,1.96.78,2.68,1.22.72.45,1.27.94,1.66,1.48.39.54.58,1.2.58,1.98,0,.81-.15,1.51-.46,2.09-.31.58-.73,1.05-1.25,1.4-.52.35-1.13.6-1.83.76-.7.16-1.42.23-2.15.23-1.63,0-3.27-.42-4.92-1.25-1.65-.83-2.98-1.87-3.98-3.11l-6.51,6.63c1.82,1.9,4.11,3.37,6.86,4.39,2.75,1.03,5.6,1.54,8.55,1.54,2.01,0,3.97-.27,5.87-.81,1.9-.54,3.59-1.38,5.06-2.5,1.47-1.12,2.65-2.55,3.52-4.27.87-1.73,1.31-3.77,1.31-6.14,0-2.06-.41-3.77-1.22-5.15s-1.84-2.53-3.08-3.46c-1.24-.93-2.62-1.68-4.13-2.24-1.51-.56-2.97-1.08-4.36-1.54-.97-.31-1.84-.61-2.62-.9-.78-.29-1.45-.61-2.01-.96-.56-.35-.99-.76-1.28-1.22-.29-.47-.44-1.05-.44-1.75,0-.81.18-1.48.55-2.01.37-.52.82-.95,1.37-1.28.54-.33,1.15-.55,1.83-.67.68-.12,1.35-.17,2.01-.17,1.28,0,2.61.32,3.98.96,1.38.64,2.49,1.5,3.34,2.59l6.34-6.69Z"/>
        <path d="m458.33,30.74v-1.31h.75c.21,0,.42.04.62.12.2.08.3.25.3.5,0,.28-.11.46-.32.55-.21.09-.44.14-.68.14h-.66Zm-.82,2.58h.82v-1.92h.59l1.07,1.92h1l-1.23-2.01c.32-.07.58-.21.77-.42.19-.21.29-.48.29-.82,0-.25-.05-.46-.14-.63-.1-.17-.22-.3-.39-.41-.16-.11-.34-.19-.55-.23-.2-.05-.41-.07-.63-.07h-1.61v4.58Zm-1.58-3.62c.18-.42.42-.78.73-1.09.31-.31.67-.56,1.09-.73.42-.18.86-.27,1.34-.27s.92.09,1.34.27.78.42,1.09.73c.31.31.55.67.73,1.09.18.42.27.87.27,1.34s-.09.91-.27,1.32c-.18.42-.42.79-.73,1.1-.31.32-.67.56-1.09.74s-.86.27-1.34.27-.92-.09-1.34-.27c-.42-.18-.78-.43-1.09-.74-.31-.32-.55-.68-.73-1.1-.18-.42-.27-.86-.27-1.32s.09-.93.27-1.34m-.59,2.92c.21.49.51.92.88,1.28.37.36.8.65,1.3.86.49.21,1.02.31,1.58.31s1.09-.1,1.58-.31c.49-.21.93-.49,1.3-.86.37-.36.66-.79.88-1.28.21-.49.32-1.01.32-1.57s-.11-1.09-.32-1.58c-.21-.5-.51-.93-.88-1.29-.37-.36-.8-.65-1.3-.87-.49-.22-1.02-.32-1.58-.32s-1.09.11-1.58.32c-.5.21-.93.5-1.3.87s-.66.79-.88,1.29c-.22.5-.32,1.02-.32,1.58s.11,1.09.32,1.57"/>
      </g>
    </g>
  </g>
</svg>